# xmcd
#
# Track frame offsets:
#	150
#	11725
#	22175
#	33050
#	44875
#	56412
#	66512
#	79000
#	90850
#	103900
#	115075
#	126075
#	136775
#	147975
#	158600
#	169625
#	181375
#	192975
#	204900
#	215525
#
# Disc length: 2990 seconds
#
# Revision: 2
# Processed by: cddbd v1.4PL0 Copyright (c) Steve Scherf et al.
# Submitted via: EZCDDA 4.3.2
#
DISCID=140bac14
DTITLE=Patsey Cline - Greatest Hits Vol 1
DYEAR=1900
DGENRE=
TTITLE0=Walking After Midnight
TTITLE1=I Love Yoy Honey
TTITLE2=Now To Late
TTITLE3=Never Do More
TTITLE4=In Care Of The Blues
TTITLE5=Three Cigaretes In The Ashtray
TTITLE6=Finger Prints
TTITLE7=Today tomorrow&forever
TTITLE8=Through The Eyes Of A Child
TTITLE9=Just Out Of Reach
TTITLE10=I Cant Forget
TTITLE11=I See An Angel
TTITLE12=Hungry For Love
TTITLE13=I Don't Wanta
TTITLE14=Stop The World And Let Me Off
TTITLE15=Let The Teardrops Fall
TTITLE16=I've Loved And Lost Again
TTITLE17=If Only I Could Stay Asleep
TTITLE18=Honky Tonk Merry-Go Round
TTITLE19=Ain't No Wheels On This Ship
EXTD=
EXTT0=
EXTT1=
EXTT2=
EXTT3=
EXTT4=
EXTT5=
EXTT6=
EXTT7=
EXTT8=
EXTT9=
EXTT10=
EXTT11=
EXTT12=
EXTT13=
EXTT14=
EXTT15=
EXTT16=
EXTT17=
EXTT18=
EXTT19=
PLAYORDER=
